<svg width="38" height="44" viewBox="0 0 38 44" fill="none" xmlns="http://www.w3.org/2000/svg">
<path d="M29.793 6.68739L17.5812 13.2434L12.2708 10.2094L24.5487 3.6063L18.3298 0.0546875L0.642578 10.4255L18.3263 20.6343L36.0137 10.2652L29.793 6.68739Z" fill="#03045E"/>
<path d="M12.4727 20.3493L12.3638 33.8254L5.63509 30.162L5.74217 16.6858L0 13.5586L0.435358 33.8667L18.6501 43.7846L18.2148 23.4765L12.4727 20.3493Z" fill="#0077B6"/>
<path d="M25.7132 25.8837L37.6723 19.434V12.918L19.9375 23.2833V43.9476L37.6723 33.5823V27.0682L25.7132 33.518V29.7008V25.8837Z" fill="#00B4D8"/>
<path d="M25.7119 28.1217L37.671 21.6719V24.8976L25.7119 31.1227" fill="#00B4D8"/>
</svg>
